HIERARCHY
ROOT Hips
{
    OFFSET 0.00000 0.00000 0.00000
    CHANNELS 6 Xposition Yposition Zposition Zrotation Yrotation Xrotation
    JOINT LHipJoint
    {
        OFFSET 0.00000 0.00000 0.00000
        CHANNELS 3 Zrotation Yrotation Xrotation
        JOINT LeftUpLeg
        {
            OFFSET 126.00988 0.00000 0.00000
            CHANNELS 3 Zrotation Yrotation Xrotation
            JOINT LeftLeg
            {
                OFFSET 0.00000 0.00000 -438.48094
                CHANNELS 3 Zrotation Yrotation Xrotation
                JOINT LeftFoot
                {
                    OFFSET 0.00000 0.00000 -414.96806
                    CHANNELS 3 Zrotation Yrotation Xrotation
                    JOINT LeftToeBase
                    {
                        OFFSET 0.00000 -0.10000 0.00000
                        CHANNELS 3 Zrotation Yrotation Xrotation
                        End Site
                        {
                            OFFSET 0.00000 0.00000 0.10000
                        }
                    }
                }
            }
        }
    }
    JOINT RHipJoint
    {
        OFFSET 0.00000 0.00000 0.00000
        CHANNELS 3 Zrotation Yrotation Xrotation
        JOINT RightUpLeg
        {
            OFFSET -126.00988 0.00000 0.00000
            CHANNELS 3 Zrotation Yrotation Xrotation
            JOINT RightLeg
            {
                OFFSET 0.00000 0.00000 -438.48094
                CHANNELS 3 Zrotation Yrotation Xrotation
                JOINT RightFoot
                {
                    OFFSET 0.00000 0.00000 -414.96806
                    CHANNELS 3 Zrotation Yrotation Xrotation
                    JOINT RightToeBase
                    {
                        OFFSET 0.00000 -0.10000 0.00000
                        CHANNELS 3 Zrotation Yrotation Xrotation
                        End Site
                        {
                            OFFSET 0.00000 0.00000 0.10000
                        }
                    }
                }
            }
        }
    }
    JOINT LowerBack
    {
        OFFSET 0.00000 0.00000 0.00000
        CHANNELS 3 Zrotation Yrotation Xrotation
        JOINT Spine
        {
            OFFSET 0.00000 0.00000 235.61185
            CHANNELS 3 Zrotation Yrotation Xrotation
            JOINT Spine1
            {
                OFFSET 0.00000 0.00000 250.34927
                CHANNELS 3 Zrotation Yrotation Xrotation
                JOINT Neck
                {
                    OFFSET 0.00000 0.00000 0.00000
                    CHANNELS 3 Zrotation Yrotation Xrotation
                    JOINT Neck1
                    {
                        OFFSET 0.00000 0.00000 96.69944
                        CHANNELS 3 Zrotation Yrotation Xrotation
                        JOINT Head
                        {
                            OFFSET 0.00000 0.00000 108.44757
                            CHANNELS 3 Zrotation Yrotation Xrotation
                            End Site
                            {
                                OFFSET 0.00000 0.09806 -0.01961
                            }
                        }
                    }
                }
                JOINT LeftShoulder
                {
                    OFFSET 0.00000 0.00000 0.00000
                    CHANNELS 3 Zrotation Yrotation Xrotation
                    JOINT LeftArm
                    {
                        OFFSET 139.58383 0.00000 0.00000
                        CHANNELS 3 Zrotation Yrotation Xrotation
                        JOINT LeftForeArm
                        {
                            OFFSET 260.80540 0.00000 0.00000
                            CHANNELS 3 Zrotation Yrotation Xrotation
                            JOINT LeftHand
                            {
                                OFFSET 215.78538 0.00000 0.00000
                                CHANNELS 3 Zrotation Yrotation Xrotation
                                JOINT LeftFingerBase
                                {
                                    OFFSET 0.00000 0.00000 0.00000
                                    CHANNELS 3 Zrotation Yrotation Xrotation
                                    JOINT LeftHandIndex1
                                    {
                                        OFFSET 0.10000 0.00000 0.00000
                                        CHANNELS 3 Zrotation Yrotation Xrotation
                                        End Site
                                        {
                                            OFFSET 0.10000 0.00000 0.00000
                                        }
                                    }
                                }
                                JOINT LThumb
                                {
                                    OFFSET 0.10000 0.00000 0.00000
                                    CHANNELS 3 Zrotation Yrotation Xrotation
                                    End Site
                                    {
                                        OFFSET 0.07071 0.00000 0.07071
                                    }
                                }
                            }
                        }
                    }
                }
                JOINT RightShoulder
                {
                    OFFSET 0.00000 0.00000 0.00000
                    CHANNELS 3 Zrotation Yrotation Xrotation
                    JOINT RightArm
                    {
                        OFFSET -139.58383 0.00000 0.00000
                        CHANNELS 3 Zrotation Yrotation Xrotation
                        JOINT RightForeArm
                        {
                            OFFSET -260.80540 0.00000 0.00000
                            CHANNELS 3 Zrotation Yrotation Xrotation
                            JOINT RightHand
                            {
                                OFFSET -215.78538 0.00000 0.00000
                                CHANNELS 3 Zrotation Yrotation Xrotation
                                JOINT RightFingerBase
                                {
                                    OFFSET 0.00000 0.00000 0.00000
                                    CHANNELS 3 Zrotation Yrotation Xrotation
                                    JOINT RightHandIndex1
                                    {
                                        OFFSET -0.10000 0.00000 0.00000
                                        CHANNELS 3 Zrotation Yrotation Xrotation
                                        End Site
                                        {
                                            OFFSET -0.10000 0.00000 0.00000
                                        }
                                    }
                                }
                                JOINT RThumb
                                {
                                    OFFSET -0.10000 0.00000 0.00000
                                    CHANNELS 3 Zrotation Yrotation Xrotation
                                    End Site
                                    {
                                        OFFSET -0.07071 0.00000 0.07071
                                    }
                                }
                            }
                        }
                    }
                }
            }
        }
    }
}
MOTION
Frames: 7
Frame Time: 0.03333333333333333
0.0 0.0 922.1006332850415 53.365690714527275 -16.597382094899206 2.2565311293658645 0.0 -7.951386703658792e-16 0.0 2.473299476270857 13.967582390642312 -11.188874052712334 4.062040179931468 18.479442751601425 30.186365384124553 0.0 -1.5902773407317584e-15 0.0 0.0 -1.5902773407317584e-15 0.0 0.0 -7.951386703658792e-16 0.0 3.0192784082150266 16.807412393350976 -17.83394233562451 -0.07383566701271056 8.768885040340452 21.527931672420085 0.0 5.466578358765419e-16 0.0 0.0 5.466578358765419e-16 0.0 0.0 -7.951386703658792e-16 0.0 -12.516658969813514 -14.22638614425718 17.24117273719805 0.5608658831445646 -1.5824747458563758e-15 -1.5980418391320498e-15 0.0 0.0 -3.1805546814635168e-15 -38.4902125909352 5.156130894288357 -3.432477577749081 0.0 0.0 0.0 0.0 0.0 -3.1805546814635168e-15 -5.5932240218530325 66.69334317119612 -6.0729705597814325 -103.33645011640387 -1.3903479623428614e-15 1.2014791134169644e-14 8.827812596100317e-32 3.1805546814635168e-15 3.1805546814635168e-15 8.827812596100317e-32 3.1805546814635168e-15 3.1805546814635168e-15 8.827812596100317e-32 3.1805546814635168e-15 3.1805546814635168e-15 8.827812596100317e-32 3.1805546814635168e-15 3.1805546814635168e-15 0.0 0.0 -3.1805546814635168e-15 13.39107265362675 -37.50199517898013 -43.08800708581065 55.00899356987848 -2.332101308676656e-16 1.422196099947017e-14 0.0 -1.5902773407317584e-15 0.0 0.0 -1.5902773407317584e-15 0.0 0.0 -1.5902773407317584e-15 0.0 0.0 -1.5902773407317584e-15 0.0
0.0 0.0 922.1006332850415 51.977657925858715 -16.958035448185974 2.1971829752518217 0.0 -7.951386703658792e-16 0.0 2.393664728538329 14.530970854963662 -10.985758297178222 3.2408743529906343 17.173334346677688 28.87094739200598 0.0 7.951386703658792e-16 0.0 0.0 7.951386703658792e-16 0.0 0.0 -7.951386703658792e-16 0.0 2.8243335646663312 17.44329730510083 -17.204873979846848 -0.7400233791628409 6.710952119589218 20.734649422802324 0.0 -4.969616689786745e-16 0.0 0.0 -4.969616689786745e-16 0.0 0.0 -7.951386703658792e-16 0.0 -12.997083751620664 -13.667580130928158 17.87140117124507 -1.3709660910634398 -9.512761311889047e-18 -7.950817646528195e-16 0.0 0.0 0.0 -36.81445686082946 5.622567504526797 -4.26991495787302 7.951386703658794e-16 0.0 0.0 0.0 0.0 0.0 -9.51284741383357 66.06274460041116 -5.9098729307412095 -100.94062015437756 3.1349821411061754e-15 6.195208369350924e-15 0.0 1.5902773407317584e-15 0.0 0.0 1.5902773407317584e-15 0.0 0.0 1.5902773407317584e-15 0.0 0.0 1.5902773407317584e-15 0.0 0.0 0.0 0.0 14.484369446837722 -41.20425218157603 -42.654191144507934 52.44975299619395 2.097652500322034e-15 -6.057706811997583e-15 0.0 1.5902773407317584e-15 0.0 0.0 1.5902773407317584e-15 0.0 0.0 1.5902773407317584e-15 0.0 0.0 1.5902773407317584e-15 0.0
0.0 0.0 922.1006332850415 50.72325339619463 -16.766406730099582 2.554056881465521 0.0 0.0 0.0 2.224914988253282 14.329634705396497 -10.761757763929195 3.1009382052441614 16.87102458290391 26.947770267127925 0.0 0.0 0.0 0.0 0.0 0.0 0.0 0.0 0.0 2.7513899811746616 17.291246339001543 -18.02416374810831 -1.0907965495170489 5.394801977459613 21.805397212546584 0.0 1.987846675914698e-16 0.0 0.0 1.987846675914698e-16 0.0 0.0 0.0 0.0 -13.705514988479583 -14.54757142091001 18.829768034408975 -0.5698900180788317 -3.168652178995967e-15 2.401204072194732e-15 0.0 0.0 -6.3611093629270335e-15 -35.767177815529 4.687104073070891 -4.977775425805736 0.0 3.975693351829396e-16 0.0 0.0 0.0 -6.3611093629270335e-15 -13.981958737147806 65.35979000744939 -8.379690695342862 -100.55711356816587 -9.219430795427405e-16 -3.867319302289857e-15 0.0 3.1805546814635168e-15 0.0 0.0 3.1805546814635168e-15 0.0 0.0 3.1805546814635168e-15 0.0 0.0 3.1805546814635168e-15 0.0 0.0 0.0 -6.3611093629270335e-15 15.284669012317817 -41.323890034391404 -42.94030058394379 45.99918555916475 2.927724853468396e-15 1.2427209116140913e-15 0.0 -1.5902773407317584e-15 0.0 0.0 -1.5902773407317584e-15 0.0 0.0 -1.5902773407317584e-15 0.0 0.0 -1.5902773407317584e-15 0.0
0.0 0.0 922.1006332850415 49.64068360434944 -16.70229431606265 2.1876894833738634 0.0 0.0 0.0 2.2573694626673464 14.078535301045854 -10.245642328731494 2.597338812745099 16.793118583998776 25.86109186364527 0.0 -1.1927080055488188e-15 0.0 0.0 -1.1927080055488188e-15 0.0 0.0 0.0 0.0 2.7729691095906603 17.46285872910306 -17.55480502057374 -1.2826260097438311 4.967850159693868 20.613437107645396 0.0 -2.981770013872047e-16 0.0 0.0 -2.981770013872047e-16 0.0 0.0 0.0 0.0 -14.831375656493245 -15.328557036819017 19.736623127447036 -0.6927952458925501 -4.807203423216882e-18 -7.951241386767642e-16 0.0 0.0 0.0 -35.5473343924778 5.329962547375314 -5.751165667331429 0.0 -1.987846675914698e-16 0.0 0.0 0.0 0.0 -20.3087958657512 67.0375637190615 -11.896253460918974 -99.96273994023642 5.113033141610394e-16 -6.089453391226143e-16 0.0 1.5902773407317584e-15 0.0 0.0 1.5902773407317584e-15 0.0 0.0 1.5902773407317584e-15 0.0 0.0 1.5902773407317584e-15 0.0 0.0 0.0 0.0 16.463823216427546 -40.55479027399921 -39.9903649463259 39.95456176338736 1.3451286927769754e-14 4.889828590333746e-15 0.0 -1.987846675914698e-15 0.0 0.0 -1.987846675914698e-15 0.0 0.0 -1.987846675914698e-15 0.0 0.0 -1.987846675914698e-15 0.0
0.0 0.0 922.1006332850415 46.8757912260496 -17.844225373971945 4.649129102663073 6.361109362927033e-15 7.951386703658791e-16 4.4139062980501586e-32 2.566119742364139 14.918448103681442 -11.86463332969686 2.1013836888928985 15.943423585965194 23.90366529921448 -1.1034765745125397e-32 7.951386703658792e-16 -1.5902773407317584e-15 -1.1034765745125397e-32 7.951386703658792e-16 -1.5902773407317584e-15 6.361109362927033e-15 7.951386703658791e-16 4.4139062980501586e-32 2.6416750823196007 19.120496775619333 -19.23281628592697 -1.200407000971715 3.9712944417366756 20.038612966728927 0.0 9.93923337957349e-17 0.0 0.0 9.93923337957349e-17 0.0 6.361109362927033e-15 7.951386703658791e-16 4.4139062980501586e-32 -15.040243800132453 -14.471949842996295 20.01764288707658 0.7516369968825775 6.3766189990828325e-15 -2.3436407603672568e-15 0.0 0.0 0.0 -31.96039194245722 5.416360838170673 -6.969469674744792 0.0 7.951386703658792e-16 0.0 0.0 0.0 0.0 -21.078201285577858 67.13127691745768 -11.175659128041854 -96.98365987747283 -2.6347986855940667e-15 2.9772426025052504e-15 0.0 -1.5902773407317582e-15 0.0 0.0 -1.5902773407317582e-15 0.0 0.0 -1.5902773407317582e-15 0.0 0.0 -1.5902773407317582e-15 0.0 0.0 0.0 0.0 19.0309787088278 -41.03888374326611 -44.50785686362266 35.02910266218644 -1.783816922609861e-14 1.0410085216911787e-15 0.0 3.975693351829396e-16 0.0 0.0 3.975693351829396e-16 0.0 0.0 3.975693351829396e-16 0.0 0.0 3.975693351829396e-16 0.0
0.0 0.0 922.1006332850415 43.30264107807778 -17.726862833937467 6.068372123768694 5.517382872562698e-33 -7.951386703658792e-16 -7.951386703658792e-16 2.929322422714348 14.96661834480807 -15.055682019808978 0.7883080745139777 12.321047438686657 20.789357032794307 0.0 -7.951386703658792e-16 0.0 0.0 -7.951386703658792e-16 0.0 5.517382872562698e-33 -7.951386703658792e-16 -7.951386703658792e-16 2.0402185265116484 19.017880815278914 -17.581605753180437 -0.7739098671527971 3.687060821557572 17.39511736298005 0.0 -1.987846675914698e-16 0.0 0.0 -1.987846675914698e-16 0.0 5.517382872562698e-33 -7.951386703658792e-16 -7.951386703658792e-16 -15.996490520188763 -14.89994345231471 21.62769636734686 2.4232340871476286 6.725324425847537e-17 -3.179843562648359e-15 -3.1805546814635168e-15 0.0 0.0 -32.24687394635645 7.049659093864882 -7.8125787318557265 0.0 -1.987846675914698e-16 0.0 -3.1805546814635168e-15 0.0 0.0 -27.94281249365157 66.10361402085866 -17.981672680693112 -99.36141574544045 1.3960320697464823e-15 3.270474669289417e-15 0.0 -1.5902773407317584e-15 0.0 0.0 -1.5902773407317584e-15 0.0 0.0 -1.5902773407317584e-15 0.0 0.0 -1.5902773407317584e-15 0.0 -3.1805546814635168e-15 0.0 0.0 21.01507334857168 -38.22201670216769 -38.622729888844745 30.28594529166369 3.710999968536965e-15 7.594222890532403e-15 0.0 -1.770425945736528e-16 0.0 0.0 -1.770425945736528e-16 0.0 0.0 -1.770425945736528e-16 0.0 0.0 -1.770425945736528e-16 0.0
0.0 0.0 922.1006332850415 39.75025228171625 -17.809475278937995 7.819003984263321 6.3611093629270335e-15 7.951386703658792e-16 7.951386703658792e-16 3.186748544217649 14.895592346807446 -15.987643776112808 0.39523246912021737 11.60527117344663 19.94756043451789 0.0 0.0 0.0 0.0 0.0 0.0 6.3611093629270335e-15 7.951386703658792e-16 7.951386703658792e-16 2.1613524413062866 19.24352828463534 -18.82545074552788 -0.8615431317470028 3.2806507165918073 16.985666488907484 0.0 0.0 0.0 0.0 0.0 0.0 6.3611093629270335e-15 7.951386703658792e-16 7.951386703658792e-16 -15.980369848588458 -14.788138921439861 21.578368203615785 3.5750662233385806 1.9119422212336334e-15 -1.0282166567747529e-14 -2.2069531490250793e-32 3.1805546814635164e-15 -7.951386703658791e-16 -30.52978674097557 6.914017391015811 -9.4900360999993 0.0 0.0 0.0 -2.2069531490250793e-32 3.1805546814635164e-15 -7.951386703658791e-16 -30.73647240119915 67.36891331289121 -19.309408773966446 -98.61752758362738 -3.4484378138389357e-15 -8.678633223671283e-16 0.0 -3.1805546814635168e-15 0.0 0.0 -3.1805546814635168e-15 0.0 0.0 -3.1805546814635168e-15 0.0 0.0 -3.1805546814635168e-15 0.0 -2.2069531490250793e-32 3.1805546814635164e-15 -7.951386703658791e-16 21.76934733376431 -38.50024946534911 -38.5472917274104 28.49225946465108 -4.648136333019334e-15 5.382793794913849e-15 0.0 3.975693351829396e-16 0.0 0.0 3.975693351829396e-16 0.0 0.0 3.975693351829396e-16 0.0 0.0 3.975693351829396e-16 0.0
